/* XPM */
static char *_1186992fab84e62fda30c72ca3445f7[] = {
/* columns rows colors chars-per-pixel */
"48 48 256 2 ",
"   c #432803",
".  c #5B3900",
"X  c #5A400F",
"o  c #6C4907",
"O  c #714800",
"+  c #705007",
"@  c #775614",
"#  c #444030",
"$  c #4A4A38",
"%  c #504F37",
"&  c #5B5938",
"*  c #5D553D",
"=  c #765A26",
"-  c #655D39",
";  c #7E6B37",
":  c #434448",
">  c #545453",
",  c #5E5E5C",
"<  c #605E4E",
"1  c #62625F",
"2  c #79765F",
"3  c #545B68",
"4  c #5E6377",
"5  c #646462",
"6  c #6A6967",
"7  c #63666B",
"8  c #6D6D6C",
"9  c #63686B",
"0  c #72726E",
"q  c #78776E",
"w  c #656770",
"e  c #66707F",
"r  c #6C7278",
"t  c #757572",
"y  c #797977",
"u  c #7C7C7A",
"i  c #845600",
"p  c #8E5E00",
"a  c #9E731E",
"s  c #A8781B",
"d  c #A87413",
"f  c #976F22",
"g  c #9D762B",
"h  c #8C7333",
"j  c #9A7838",
"k  c #A67A27",
"l  c #927D5D",
"z  c #827F6A",
"x  c #9B8D3F",
"c  c #9D9036",
"v  c #AF8124",
"b  c #B3842C",
"n  c #BB8A2E",
"m  c #AA912D",
"M  c #B19822",
"N  c #B08736",
"B  c #BB8C32",
"V  c #BB8E3A",
"C  c #C2950F",
"Z  c #C88B1A",
"A  c #D8971C",
"S  c #C8A61F",
"D  c #EFAB1E",
"F  c #C78F26",
"G  c #C19B29",
"H  c #CB9229",
"J  c #D49629",
"K  c #CA9430",
"L  c #CDA42A",
"P  c #CCA325",
"I  c #D1A827",
"U  c #D2A62A",
"Y  c #D4AA2C",
"T  c #DBAE2C",
"R  c #DEB22D",
"E  c #CDAA30",
"W  c #CFB33D",
"Q  c #D6B73E",
"!  c #E0AC21",
"~  c #E2B52C",
"^  c #ECBB2C",
"/  c #E7B924",
"(  c #F0BF2D",
")  c #E2A437",
"_  c #E9AC38",
"`  c #E2B435",
"'  c #EABD31",
"]  c #E9B537",
"[  c #F0B639",
"{  c #EFC02C",
"}  c #F6C42A",
"|  c #EAC435",
" . c #EDC932",
".. c #F2C231",
"X. c #F9C732",
"o. c #FECB34",
"O. c #F2C43B",
"+. c #F7C93C",
"@. c #FECD3B",
"#. c #F1CC33",
"$. c #FFD63E",
"%. c #FFE521",
"&. c #FFE631",
"*. c #998F47",
"=. c #978557",
"-. c #A99849",
";. c #B89140",
":. c #B79D41",
">. c #B89A4D",
",. c #A28957",
"<. c #AB9B51",
"1. c #B9A84E",
"2. c #B9A758",
"3. c #838168",
"4. c #968762",
"5. c #999267",
"6. c #878775",
"7. c #81817F",
"8. c #978D76",
"9. c #A38E6D",
"0. c #A99167",
"q. c #A7997D",
"w. c #BDA472",
"e. c #C99944",
"r. c #C3AE46",
"t. c #D3A34C",
"y. c #DDA848",
"u. c #CEB542",
"i. c #D0B847",
"p. c #C7A156",
"a. c #C7A85B",
"s. c #D5AC56",
"d. c #E1A945",
"f. c #E2AE4F",
"g. c #F1B342",
"h. c #E2B15E",
"j. c #C5A868",
"k. c #D1AC6D",
"l. c #C0A777",
"z. c #CCAD72",
"x. c #DCBC7A",
"c. c #EAC94B",
"v. c #FECE44",
"b. c #FDCD49",
"n. c #FFD246",
"m. c #FFD24C",
"M. c #FFDB4C",
"N. c #FCCC52",
"B. c #FAC75C",
"V. c #FED353",
"C. c #FFDC54",
"Z. c #FDD45C",
"A. c #FBD558",
"S. c #FFE54E",
"D. c #FFE355",
"F. c #FFF456",
"G. c #D9C068",
"H. c #EFC96D",
"J. c #FACB64",
"K. c #FDD562",
"L. c #FFDA64",
"P. c #FFD66B",
"I. c #F5D56E",
"U. c #EAC47B",
"Y. c #EFD275",
"T. c #FFD774",
"R. c #FFDC77",
"E. c #FDDD7A",
"W. c #FFE664",
"Q. c #FFE073",
"!. c #FFE47A",
"~. c #FFF379",
"^. c #596281",
"/. c #697290",
"(. c #7F8188",
"). c #858583",
"_. c #878885",
"`. c #8A8A87",
"'. c #8C8D8B",
"]. c #8D9186",
"[. c #91918F",
"{. c #818690",
"}. c #8C8F90",
"|. c #848C97",
" X c #8F9299",
".X c #949593",
"XX c #989795",
"oX c #999997",
"OX c #93949B",
"+X c #9C9C9A",
"@X c #AA9E8C",
"#X c #B3A68A",
"$X c #BFB19A",
"%X c #A19EA1",
"&X c #9BA1A2",
"*X c #BFB4A7",
"=X c #BBB3AA",
"-X c #C1AF8A",
";X c #CEB688",
":X c #C6B48D",
">X c #D9BA82",
",X c #C3B393",
"<X c #CCBB95",
"1X c #D0BC95",
"2X c #C6B7A1",
"3X c #CCBEA6",
"4X c #C5BBB9",
"5X c #DEC693",
"6X c #D6C398",
"7X c #E3C58D",
"8X c #E6C687",
"9X c #FFDE85",
"0X c #F8D796",
"qX c #FFEE87",
"wX c #FCE78C",
"eX c #F7ED8A",
"rX c #FFF489",
"tX c #EBE199",
"yX c #CFC1A5",
"uX c #D5C8AF",
"iX c #DCCDAE",
"pX c #D8C5A3",
"aX c #CCC4B3",
"sX c #D7CDBB",
"dX c #DDD3BD",
"fX c #DDD1B7",
"gX c #E6D2AD",
"hX c #E6D8B9",
"jX c #F7EFAA",
"kX c #FBF9A7",
"lX c #F9F4A6",
"zX c #EDF3BF",
"xX c #DED6CE",
"cX c #DFDBCD",
"vX c #E0D7C5",
"bX c #E4DCCB",
"nX c #E2DED5",
"mX c #E7E0CF",
"MX c #EBE2CC",
"NX c #EEF2C9",
"BX c #F7F9CA",
"VX c #E7E1D3",
"CX c #E6E8DF",
"ZX c #EBE6D8",
"AX c #F3EDDF",
"SX c #F2FED6",
"DX c #EBEBE5",
"FX c #ECECEB",
"GX c #E5E3E3",
"HX c #F0EEE7",
"JX c #F5F1E4",
"KX c #FFFFE5",
"LX c #F7F6E8",
"PX c #FCFDFB",
"IX c #F4F6F2",
"UX c None",
/* pixels */
"UXUXUXUXUXUXUXUXUXUXUXUXUXUXUXUXUXUXUXUXUXUXUXUXUXUXUXUXUXUXUXUXUXUXUXUXUXUXUXUXUXUXUXUXUXUXUXUX",
"UXUXUXUXUXUXUXUXUXUXUXUXUXUXUXUXUXUXUXUXUXUXUXUXUXUXUXUXUXUXUXUXUXUXUXUXUXUXUXUXUXUXUXUXUXUXUXUX",
"UXUXUXUXUXUXUXUXUXUXUXUXUXUXUXUXUXUXUXUXUXUXUXUXUXUXUXUXUXUXUXUXUXUXUXUXUXUXUXUXUXUXUXUXUXUXUXUX",
"UXUXUXUXUXUXUXUXUXUXUXUXUXUXUXUXUXUXUXUXUXUXUXUXUXUXUXUXUXUXUXUXUXUXUXUXUXUXUXUXUXUXUXUXUXUXUXUX",
"UXUXUXUXUXUXUXUXUXUXUXUXUX> UXUXUXUXUXUXUXUXUXUXUXUXUXUXUXUXUXUXUXUXUXUXUXUXUXUXUXUXUXUXUXUXUXUX",
"UXUXUXUXUXUXUXUXUXUXUXUX5 , UXUXUXUXUXUXUXUXUXUXUXUXUXUXUXUXUXUXUXUXUXUXUXUXUXUXUXUXUXUXUXUXUXUX",
"UXUXUXUXUXUXUXUXUXUX5 0 6 , UXUXUXUXUXUXUXUXUXUXUXUXUXUXUXUXUXUXUXUXUXUXUXUXUXUXUXUXUXUXUXUXUXUX",
"UXUXUXUXUXUXUXUXUXy u t 8 5 UXUXUXUXUXUXUXUXUXUXUXUXUXUXUXUXUXUXUXUXUXUXUXUXUXUXUXUXUXUXUXUXUXUX",
"UXUXUXUXUXUXUXUXUXt ).y t 6 UXUXUXUXUXUXUXUXUXUXUXUXUXUXUXUXUXUXUXUXUXUXUXUXUXUXUXUXUXUXUXUXUXUX",
"UXUXUXUXUXUXUXUXUX0 ).7.y 0 UXUXUXUXUXUXUXUXUXUXUXUXUXUXUXUXUXUXUXUXUXUXUXUXUXUXUXUXUXUXUXUXUXUX",
"UXUXUXUXUXUXUXUXUXt ).).u t UXUXUXUXUXUXUXUXUXUXUXUXUXUXUXUXUXUXUXUXUXUXUXUXUXUXUXUXUXUXUXUXUXUX",
"UXUXUXUXUXUXUXUXUXy ).).).t UXUXUXUXUXUXUXUXUXUXUXUXUXUXUXUXUXUXUXUXUXUXUXUXUXUXUXUXUXUXUXUXUXUX",
"UXUXUXUXUXUXUXUXUXy '.`.).y UXUXUXUXUXUXUXUXUXUXUXUXUXUXUXUXUXUXUXUXUXUXUXUXUXUXUXUXUXUXUXUXUXUX",
"UXUXUXUXUXUXUXUXUXu [.'.).u UXUXUXUX6 8 q 4.<.<.W -.2 *.< : UXUXUXUXUXUXUXUXUXUXUXUXUXUXUXUXUXUX",
"UXUXUXUXUXUXUXUXUXu [.[.'.`.UXUX0 (.)./.2. .| | #.^.Q %.3.w 5 > UXUXUXUXUXUXUXUXUXUXUXUXUXUXUXUX",
"UXUXUXUXUXUXUXUXUX)..X[.[.'.u `.]._.).(.2.5.6.3.q ^.=.6 4 y 8 8 5 : UXUXUXUXUXUXUXUXUXUXUXUXUXUX",
"UXUXUXUXUXUXUXUXUX).oX.X.X[.[.'.'.'.{.'.UXUXUXUXUXUXUXUX5 3 t t 8 8 1 UXUXUXUXUXUXUXUXUXUXUXUXUX",
"UXUXUXUXUXUXUXUXUX_.oXoX.X.X.X.X}.{.UXUXUX;.p.>Xz.:Xx.P.UXUX3 9 y 8 8 , UXUXUXUXUXUXUXUXUXUXUXUX",
"UXUXUXUXUXUXUXUXUX).+X.X.XoXXX.XUXUXO h iXVXcXpX;Xk.f.B.N.) UXUX7 y 0 t > UXUXUXUXUXUXUXUXUXUXUX",
"UXUXUXUXUXUXUXUXUX`.+XoX+XoX.XUXUX+ 4.cXPXmX5X>Xh.D [ _ ) J A UXUX7 y t y UXUXUXUXUXUXUXUXUXUXUX",
"UXUXUXUXUXUXUXUXUX].OXoX+XoX&XUX0.#XLXbXMX7Xy.J.W.jXlXtXH.g.J A UXe t u y 8 UXUXUXUXUXUXUXUXUXUX",
"UXUXUXUXUXUXUXUXUX].%X+X+X&XUXUX1XAXVXFX5XhXDXZXNXFXHXIXNX~.g.Z K UXr u ).0 UXUXUXUXUXUXUXUXUXUX",
"UXUXUXUXUXUXUXUXUXUXOXOX X|.UX1XbXMXIXpX8XkXBXHXDXCXLXKXSXkXB.J K UXUX8 7 4 UXUXUXUXUXUXUXUXUXUX",
"UXUXUXUXUXUXUXUXUXUXUXUXUXUXUXiXbXDXw.d d.R.!.E.E.wXNXeXwX7XfXj.a.UXUXUXUXUXUXUXUXUXUXUXUXUXUXUX",
"UXUXUXUXUXUXUXUXUXUXUXUXUXUXUX,XPXuXi a V e.t.y.d.[ U.gX) U.PXVX1XUXUXUXUXUXUXUXUXUXUXUXUXUXUXUX",
"UXUXUXUXUXUXUXUXUXUXUXUXUXUXUX#XIXvXj p k n B B B n F x.7XVXq.9.xXUXUXUXUXUXUXUXUXUXUXUXUXUXUXUX",
"UXUXUXUXUXUXUXUXUXUXm.o.@.$.UX9.bXHXsXw.5X8Xs.e.b b b Z 0X,.. . 2XUXC M G G Y UXUXUXUXUXUXUXUXUX",
"UXUXUXUXUXUXUXUXUXUXM.v.@.m.C.UX8.JXVXDXFXFXU.t.N k s k.DX,X-X=.UXM U L L U ` UXUXUXUXUXUXUXUXUX",
"UXUXUXUXUXUXUXUXUXUXUXv.n.v.M.UXUXl fXvXdXcXiX>.g f i uXHXJXGXUXUXS U L L L ~ UXUXUXUXUXUXUXUXUX",
"UXUXUXUXUXUXUXUXUXUXUXL.v.m.v.D.UXUX8.sXfXvXaX= @ o =.yX3X4XUXUX! Y U L L L ` UXUXUXUXUXUXUXUXUX",
"UXUXUXUXUXUXUXUXUXUXUXUXK.V.m.v.C.UXUXUX@X=X2X=   . @X=XUXUXUX/ Y Y E Y Y I ` UXUXUXUXUXUXUXUXUX",
"UXUXUXUXUXUXUXUXUXUXUXUXUXZ.V.V.m.M.W.UXUXUXUXUXUXUXUXUXUX} { R R R T Y U U ' UXUXUXUXUXUXUXUXUX",
"UXUXUXUXUXUXUXUXUXUXUXUXUXUX9XV.V.m.b.F.c.i.A.UXUXm.#.m E o.{ { ( | ~ R T T ' UXUXUXUXUXUXUXUXUX",
"UXUXUXUXUXUXUXUXUXUXUXUXUXUXUXUXR.Z.S.r.% $ & *.* - c - h &.o.o.M.UXR ^ R ~ O.UXUXUXUXUXUXUXUXUX",
"UXUXUXUXUXUXUXUXUXUXUXUXUXUXUXUXUXUXrXa.>.1.-.# & & ; u.:.S.K.UXUXUX' ..~ ~ O.UXUXUXUXUXUXUXUXUX",
"UXUXUXUXUXUXUXUXUXUXUXUXUXUXUXUXUXUXUXUXUXrX!.j.H.G.Y.UXUXUXUXUXUXUX+.o.' ( +.UXUXUXUXUXUXUXUXUX",
"UXUXUXUXUXUXUXUXUXUXUXUXUXUXUXUXUXUXUXUXUXUXUXUXUXUXUXUXUXUXUXUXUXUX+.o.| { @.UXUXUXUXUXUXUXUXUX",
"UXUXUXUXUXUXUXUXUXUXUXUXUXUXUXUXUXUXUXUXUXUXUXUXUXUXUXUXUXUXUXUXUXUXv.@.X.X.v.UXUXUXUXUXUXUXUXUX",
"UXUXUXUXUXUXUXUXUXUXUXUXUXUXUXUXUXUXUXUXUXUXUXUXUXUXUXUXUXUXUXUXUXUXb.$.o.o.m.UXUXUXUXUXUXUXUXUX",
"UXUXUXUXUXUXUXUXUXUXUXUXUXUXUXUXUXUXUXUXUXUXUXUXUXUXUXUXUXUXUXUXUXUXN.n.@.o.n.UXUXUXUXUXUXUXUXUX",
"UXUXUXUXUXUXUXUXUXUXUXUXUXUXUXUXUXUXUXUXUXUXUXUXUXUXUXUXUXUXUXUXUXUXA.M.n.@.@.UXUXUXUXUXUXUXUXUX",
"UXUXUXUXUXUXUXUXUXUXUXUXUXUXUXUXUXUXUXUXUXUXUXUXUXUXUXUXUXUXUXUXUXUXK.Z.m.m.UXUXUXUXUXUXUXUXUXUX",
"UXUXUXUXUXUXUXUXUXUXUXUXUXUXUXUXUXUXUXUXUXUXUXUXUXUXUXUXUXUXUXUXUXUXK.L.L.UXUXUXUXUXUXUXUXUXUXUX",
"UXUXUXUXUXUXUXUXUXUXUXUXUXUXUXUXUXUXUXUXUXUXUXUXUXUXUXUXUXUXUXUXUXUXI.Q.UXUXUXUXUXUXUXUXUXUXUXUX",
"UXUXUXUXUXUXUXUXUXUXUXUXUXUXUXUXUXUXUXUXUXUXUXUXUXUXUXUXUXUXUXUXUXUXUXUXUXUXUXUXUXUXUXUXUXUXUXUX",
"UXUXUXUXUXUXUXUXUXUXUXUXUXUXUXUXUXUXUXUXUXUXUXUXUXUXUXUXUXUXUXUXUXUXUXUXUXUXUXUXUXUXUXUXUXUXUXUX",
"UXUXUXUXUXUXUXUXUXUXUXUXUXUXUXUXUXUXUXUXUXUXUXUXUXUXUXUXUXUXUXUXUXUXUXUXUXUXUXUXUXUXUXUXUXUXUXUX",
"UXUXUXUXUXUXUXUXUXUXUXUXUXUXUXUXUXUXUXUXUXUXUXUXUXUXUXUXUXUXUXUXUXUXUXUXUXUXUXUXUXUXUXUXUXUXUXUX"
};
