/* XPM */
static char *_371c10101a4414db8d72dac2ddeb7db[] = {
/* columns rows colors chars-per-pixel */
"32 32 255 2 ",
"   c #5D3500",
".  c #664A12",
"X  c #565331",
"o  c #735624",
"O  c #7D712C",
"+  c #6A6437",
"@  c #746C33",
"#  c #4B4B48",
"$  c gray29",
"%  c #4E4E4C",
"&  c #4F4F4D",
"*  c #4D4E50",
"=  c #5E5E5C",
"-  c #6C684D",
";  c #736C4D",
":  c #6F6C5D",
">  c #71685C",
",  c #565E6E",
"<  c #5B5F6C",
"1  c #5E6776",
"2  c #676766",
"3  c #686866",
"4  c #6C6C69",
"5  c #6D6D6C",
"6  c #736F6B",
"7  c #757563",
"8  c #72726F",
"9  c #626B76",
"0  c #666E7C",
"q  c #666F7D",
"w  c #767573",
"e  c #717375",
"r  c #717376",
"t  c #767674",
"y  c #777875",
"u  c #7B7B77",
"i  c #73767E",
"p  c #787978",
"a  c #7A7A79",
"s  c #7B7B79",
"d  c #7D7D7A",
"f  c #7F7E7D",
"g  c #7F7F7D",
"h  c #875900",
"j  c #99690C",
"k  c #A6730E",
"l  c #B67E17",
"z  c #8C6D2C",
"x  c #8C7A2F",
"c  c #887A37",
"v  c #8C7039",
"b  c #A67A23",
"n  c #817649",
"m  c #957A47",
"M  c #887851",
"N  c #987F51",
"B  c #837B60",
"V  c #B08129",
"C  c #BC9C2B",
"Z  c #C7891F",
"A  c #CC991E",
"S  c #D1A00E",
"D  c #CFA51F",
"F  c #E7A01E",
"G  c #F0A71D",
"H  c #E9B71E",
"J  c #C59F28",
"K  c #C19238",
"L  c #CC9638",
"P  c #D59D38",
"I  c #C6A123",
"U  c #CAA227",
"Y  c #CAA028",
"T  c #CFA528",
"R  c #CDA52C",
"E  c #D5A927",
"W  c #D5A92B",
"Q  c #D3A92C",
"!  c #D6AA2D",
"~  c #DAAE2D",
"^  c #DCAF2F",
"/  c #DEB427",
"(  c #DEB028",
")  c #DFB134",
"_  c #DAB73F",
"`  c #E3A12F",
"'  c #E1A42F",
"]  c #E6B72D",
"[  c #E7B82B",
"{  c #E9B92D",
"}  c #EEBD2C",
"|  c #EDAF3E",
" . c #E4B735",
".. c #E8BC33",
"X. c #EBBD33",
"o. c #E8BB35",
"O. c #EFB43F",
"+. c #F2C324",
"@. c #F4C025",
"#. c #F3C12C",
"$. c #FDC92D",
"%. c #E7C635",
"&. c #E9C93B",
"*. c #FDCB34",
"=. c #FFCA35",
"-. c #F0C13A",
";. c #F5C63A",
":. c #FFC53D",
">. c #FFCE38",
",. c #FECE3B",
"<. c #FBCC3F",
"1. c #FFCC3E",
"2. c #FFD138",
"3. c #FFD13B",
"4. c #9D8E54",
"5. c #B79C42",
"6. c #A2885F",
"7. c #A99C5A",
"8. c #B8A54D",
"9. c #B4A35A",
"0. c #9C956D",
"q. c #80817E",
"w. c #9E8A76",
"e. c #AB9060",
"r. c #A0966A",
"t. c #BC9E66",
"y. c #B59E76",
"u. c #BFA061",
"i. c #BEA070",
"p. c #BBA579",
"a. c #BCA77E",
"s. c #C69A49",
"d. c #D8A646",
"f. c #C9B146",
"g. c #DDBC4C",
"h. c #C2AB5F",
"j. c #D1AB5E",
"k. c #D5AE5D",
"l. c #CBB55F",
"z. c #D9B16E",
"x. c #C1A776",
"c. c #E4BB66",
"v. c #E2B96C",
"b. c #FFCE41",
"n. c #FFD141",
"m. c #FFD240",
"M. c #FFD442",
"N. c #FFD747",
"B. c #FFD847",
"V. c #FED048",
"C. c #FFD14C",
"Z. c #FED64C",
"A. c #FFD54F",
"S. c #FFDC49",
"D. c #FFDD4A",
"F. c #FFD84F",
"G. c #E4C052",
"H. c #F2CC55",
"J. c #F1D450",
"K. c #FFDC5D",
"L. c #FFE540",
"P. c #FFE84E",
"I. c #ECC26D",
"U. c #EFD467",
"Y. c #EDD16E",
"T. c #F7D56C",
"R. c #FFDB6E",
"E. c #E5C072",
"W. c #EBCC79",
"Q. c #FFDC79",
"!. c #FFDE79",
"~. c #FFE568",
"^. c #FFE372",
"/. c #FFE378",
"(. c #6F7488",
"). c #7A8397",
"_. c #838381",
"`. c #878782",
"'. c #858584",
"]. c #878785",
"[. c #888886",
"{. c #898987",
"}. c #898A87",
"|. c #8C8C8A",
" X c #8C8D8A",
".X c #8F8F8D",
"XX c #8C908F",
"oX c #8F908F",
"OX c #90928B",
"+X c #8D9196",
"@X c #939290",
"#X c #909293",
"$X c #959592",
"%X c #949493",
"&X c #939596",
"*X c #969694",
"=X c #979695",
"-X c #9A9A97",
";X c #9A9A98",
":X c #9B9A9A",
">X c #9E9C9D",
",X c #9E9E9C",
"<X c #AEA38E",
"1X c #AFA79C",
"2X c #8E94A1",
"3X c #9696A1",
"4X c #9D9CA5",
"5X c #9DA1A3",
"6X c #B4AAA1",
"7X c #B8AEA0",
"8X c #C6B592",
"9X c #CEBA92",
"0X c #D0BF94",
"qX c #C5BDAF",
"wX c #D5C59E",
"eX c #DEC39C",
"rX c #F0CC8C",
"tX c #EFDA89",
"yX c #F1D986",
"uX c #E2C790",
"iX c #E0C99A",
"pX c #EAD29F",
"aX c #FFE886",
"sX c #F6E195",
"dX c #FFF69D",
"fX c #D1CBBF",
"gX c #E0CDAD",
"hX c #E7D9BD",
"jX c #FCE5A2",
"kX c #FDE8A3",
"lX c #FFF5AE",
"zX c #F1E6B4",
"xX c #C9C4C0",
"cX c #D0CBCF",
"vX c #DAD4CF",
"bX c #D7D7D7",
"nX c #E1DBC7",
"mX c #E3DAC9",
"MX c #EEE5CE",
"NX c #F3E7CE",
"BX c #FCF9C9",
"VX c #E1E0D2",
"CX c #E6E2DA",
"ZX c #EDE9DB",
"AX c #EEEBE5",
"SX c #EBF4EB",
"DX c #F1F4E1",
"FX c #F2F2EE",
"GX c #F6F3ED",
"HX c #EEF0F1",
"JX c #F6F4F0",
"KX c #F5F6F5",
"LX c #F1FCFF",
"PX c #F8FFFB",
"IX c None",
/* pixels */
"IXIXIXIXIXIXIXIXIXIXIXIXIXIXIXIXIXIXIXIXIXIXIXIXIXIXIXIXIXIXIXIX",
"IXIXIXIXIXIXIXIXIXIXIXIXIXIXIXIXIXIXIXIXIXIXIXIXIXIXIXIXIXIXIXIX",
"IXIXIXIXIXIXIXIXIXIXIXIXIXIXIXIXIXIXIXIXIXIXIXIXIXIXIXIXIXIXIXIX",
"IXIXIXIXIXIXIXIX& _.IXIXIXIXIXIXIXIXIXIXIXIXIXIXIXIXIXIXIXIXIXIX",
"IXIXIXIXIXIXIX5 = IXIXIXIXIXIXIXIXIXIXIXIXIXIXIXIXIXIXIXIXIXIXIX",
"IXIXIXIXIXIXs g 2 IXIXIXIXIXIXIXIXIXIXIXIXIXIXIXIXIXIXIXIXIXIXIX",
"IXIXIXIXIXIXy '.8 IXIXIXIXIXIXIXIXIXIXIXIXIXIXIXIXIXIXIXIXIXIXIX",
"IXIXIXIXIXIXd {.t IXIXIXIXIXIXIXIXIXIXIXIXIXIXIXIXIXIXIXIXIXIXIX",
"IXIXIXIXIXIXq.XXs IXIXIXIXIX: ; n - IXIXIXIXIXIXIXIXIXIXIXIXIXIX",
"IXIXIXIXIXIX_.$X{.IXIX4 (.r.%.&.7.8.f.< * IXIXIXIXIXIXIXIXIXIXIX",
"IXIXIXIXIXIX{.=X@X_.'.oX).0.4.M > B 7 1 s 3 % IXIXIXIXIXIXIXIXIX",
"IXIXIXIXIXIX|.-X=X$X#X+XIXIX6.i.x.<XIXIX, r q.& IXIXIXIXIXIXIXIX",
"IXIXIXIXIXIX|.>X-X=X4XIXz wXMXgXv.O.:.` IX9 r (.# IXIXIXIXIXIXIX",
"IXIXIXIXIXIXOX>X:X5XIXe.VXFXeXI.T.yXW.| F IX0 B y IXIXIXIXIXIXIX",
"IXIXIXIXIXIXXX3X2XIXwXZXKXpXzXDXSXLXPXdXG Z 6 0 i IXIXIXIXIXIXIX",
"IXIXIXIXIXIXIXIXIXIXhXAXt.d.aXkXjXBXlXsXuXs.IXIXIXIXIXIXIXIXIXIX",
"IXIXIXIXIXIXIXIXIXIXfXmXh k L P ' c.I.rXbXqXIXIXIXIXIXIXIXIXIXIX",
"IXIXIXIXIXIXB.m.L.IX7XJXp.u.j.K b l v.8X. <XIXS E ] IXIXIXIXIXIX",
"IXIXIXIXIXIXIXb.2.A.IX1XGXHXNXk.b j iXnXw.IXI Y J ^ IXIXIXIXIXIX",
"IXIXIXIXIXIXIXQ.*.S.H.IX6XvXCXm   v xXcXIXA D R Y ) IXIXIXIXIXIX",
"IXIXIXIXIXIXIXIXR.<.S.~.IXIX9XN o y.IXIXH / ! ! R  .IXIXIXIXIXIX",
"IXIXIXIXIXIXIXIXIXQ.C.m.P.g.5.IXIXg.C +.@.} X.~ E ..IXIXIXIXIXIX",
"IXIXIXIXIXIXIXIXIXIXIX/.J.c + @ X O x o.B.IXIX{ ( -.IXIXIXIXIXIX",
"IXIXIXIXIXIXIXIXIXIXIXIXIXtXY.h.9.l.U.IXIXIXIX*.[ ;.IXIXIXIXIXIX",
"IXIXIXIXIXIXIXIXIXIXIXIXIXIXIXIXIXIXIXIXIXIXIX2.#.<.IXIXIXIXIXIX",
"IXIXIXIXIXIXIXIXIXIXIXIXIXIXIXIXIXIXIXIXIXIXIXM.$.V.IXIXIXIXIXIX",
"IXIXIXIXIXIXIXIXIXIXIXIXIXIXIXIXIXIXIXIXIXIXIXF.2.,.IXIXIXIXIXIX",
"IXIXIXIXIXIXIXIXIXIXIXIXIXIXIXIXIXIXIXIXIXIXIXK.A.IXIXIXIXIXIXIX",
"IXIXIXIXIXIXIXIXIXIXIXIXIXIXIXIXIXIXIXIXIXIXG.^.IXIXIXIXIXIXIXIX",
"IXIXIXIXIXIXIXIXIXIXIXIXIXIXIXIXIXIXIXIXIXIXIXIXIXIXIXIXIXIXIXIX",
"IXIXIXIXIXIXIXIXIXIXIXIXIXIXIXIXIXIXIXIXIXIXIXIXIXIXIXIXIXIXIXIX",
"IXIXIXIXIXIXIXIXIXIXIXIXIXIXIXIXIXIXIXIXIXIXIXIXIXIXIXIXIXIXIXIX"
};
