/* XPM */
static char *c5af89032cdc40629011202e03c2153f[] = {
/* columns rows colors chars-per-pixel */
"16 16 71 1 ",
"  c #4A4D4D",
". c #454A58",
"X c #545854",
"o c #66675F",
"O c #6A6A69",
"+ c #616A7B",
"@ c #787876",
"# c #845913",
"$ c #A37F3A",
"% c #807849",
"& c #917C40",
"* c #C99D15",
"= c #DCAD27",
"- c #DAAE28",
"; c #D9AF2F",
": c #D7A134",
"> c #D7A53F",
", c #E5B72A",
"< c #E1B52F",
"1 c #F9C727",
"2 c #FFCE24",
"3 c #F1C031",
"4 c #FFD339",
"5 c #FFD63B",
"6 c #918446",
"7 c #94834E",
"8 c #9F8B5D",
"9 c #B39754",
"0 c #B29F52",
"q c #B3A152",
"w c #958863",
"e c #BFA767",
"r c #CDAB4A",
"t c #C2A15A",
"y c #D1B052",
"u c #E7B65E",
"i c #CEB16C",
"p c #C5A871",
"a c #E9C74D",
"s c #F1C84A",
"d c #FFD649",
"f c #F9C551",
"g c #E8CD66",
"h c #FFE57F",
"j c #FFE97A",
"k c #6F7888",
"l c #797B82",
"z c #848481",
"x c #868684",
"c c #8D9099",
"v c #939391",
"b c #919394",
"n c #989794",
"m c #9B9B99",
"M c #A59880",
"N c #BCA683",
"B c #9A9EA8",
"V c #AEA7A3",
"C c #D6BB86",
"Z c #C3B3A1",
"A c #C1B9B1",
"S c #E1C58C",
"D c #F4D584",
"F c #FCDD93",
"G c #CFC3AA",
"H c #D9CEB8",
"J c #EDDBBB",
"K c #FFFDB6",
"L c #FEFFD4",
"P c #DDDFEB",
"I c None",
/* pixels */
"IIIIIIIIIIIIIIII",
"IIIIIIIIIIIIIIII",
"IIIOzIIIIIIIIIII",
"III@mIIIIIIIIIII",
"IIIxnIo6%XIIIIII",
"IIIvblwet8+ IIII",
"IIIcBMGJFf$k.III",
"IIIIIHSDLKuIIIII",
"IIIIIAp>:CVIIIII",
"IIIj2iPN#Z9*=III",
"IIIIh5y7&r1-;III",
"IIIIIIg0qaI<3III",
"IIIIIIIIIII,4III",
"IIIIIIIIIIIsdIII",
"IIIIIIIIIIIIIIII",
"IIIIIIIIIIIIIIII"
};
